<svg width="512px" height="512px" xmlns="http://www.w3.org/2000/svg" xmlns:xlink="http://www.w3.org/1999/xlink">
<g style="">  <path d="M62.700001,223.399994 C57.900001,223.799994,53.000001,223.999994,48.000001,223.999994 C32.400001,223.999994,17.200002,221.999994,2.800000,218.099994 C19.200000,107.099994,107.100003,19.200000,218.100003,2.799991 C222.000003,17.199990,224.000003,32.399991,224.000003,47.999992 C224.000003,52.899992,223.800003,57.799992,223.400003,62.699991 C222.700003,71.499992,229.200004,79.199991,238.000004,79.999991 C246.800004,80.799991,254.500004,74.199990,255.300003,65.399990 C255.800003,59.699990,256.000003,53.899990,256.000003,48.099991 C256.000003,31.599991,254.100003,15.499992,250.400003,0.199989 C252.200003,0.199989,254.100003,0.099989,256.000003,0.099989 C397.399997,-0.000011,512.000003,114.599989,512.000003,255.999983 C512.000003,257.899983,512.000003,259.699983,511.900003,261.599983 C496.500003,257.999983,480.500003,255.999983,464.000001,255.999983 C458.200001,255.999983,452.400001,256.199983,446.700002,256.699983 C437.900002,257.399983,431.300003,265.199983,432.100002,273.999983 C432.900002,282.799983,440.600002,289.399982,449.400001,288.599983 C454.200001,288.199983,459.100001,287.999983,464.100001,287.999983 C479.700001,287.999983,494.900000,289.999983,509.300002,293.899983 C492.800002,404.899983,404.900000,492.799977,293.900008,509.199986 C290.000008,494.799986,288.000008,479.599986,288.000008,463.999985 C288.000008,459.099985,288.200008,454.199985,288.600008,449.299985 C289.300008,440.499985,282.800007,432.799985,274.000007,431.999986 C265.200007,431.199986,257.500007,437.799986,256.700008,446.599987 C256.200008,452.299986,256.000008,458.099987,256.000008,463.899986 C256.000008,480.399986,257.900008,496.499984,261.600008,511.799987 C259.800008,511.799987,257.900008,511.899987,256.000008,511.899987 C114.600014,511.999987,0.000008,397.399987,0.000008,255.999994 C0.000008,254.099994,0.000008,252.299993,0.100008,250.399994 C15.400008,254.099994,31.500008,255.999994,48.000010,255.999994 C53.800010,255.999994,59.600010,255.799994,65.300009,255.299994 C74.100009,254.599994,80.700008,246.799994,79.900009,237.999994 C79.100009,229.199994,71.400009,222.599995,62.600010,223.399994 Z M121.300003,208.000000 C113.300003,211.700000,109.700003,221.200000,113.400003,229.200001 C117.100003,237.200001,126.600003,240.800001,134.600004,237.100001 C179.800004,216.300002,216.300001,179.900000,237.100004,134.600001 C240.800004,126.600001,237.300004,117.100001,229.200004,113.400000 C221.100003,109.700000,211.700004,113.200000,208.000003,121.300000 C190.400002,159.599999,159.500003,190.499997,121.300006,207.999997 Z M398.500000,282.700012 C394.800000,274.700012,385.300000,271.100012,377.299999,274.800012 C332.099998,295.600011,295.600002,332.000013,274.799999,377.300012 C271.099999,385.300012,274.599999,394.800012,282.699999,398.500013 C290.800000,402.200013,300.199999,398.700013,303.900000,390.600013 C321.500000,352.300014,352.400000,321.400016,390.599997,303.900016 C398.599997,300.200016,402.199997,290.700016,398.499997,282.700015 Z " style="fill: rgba(255, 255, 255, 1.000000); stroke-width: 0.000000px; stroke: rgba(0, 0, 0, 1.000000); " fill="#ffffff" stroke="#000000" stroke-width="0.000000" />
</g></svg>