<svg xmlns:dc="http://purl.org/dc/elements/1.1/" xmlns:cc="http://creativecommons.org/ns#" xmlns:rdf="http://www.w3.org/1999/02/22-rdf-syntax-ns#"
                    xmlns:svg="http://www.w3.org/2000/svg" xmlns="http://www.w3.org/2000/svg" viewBox="0 0 477.42499 257.07501"
                    height="90px" width="166.5px" version="1.1">
                    <metadata id="metadata8">
                        <rdf:RDF>
                            <cc:Work rdf:about="">
                                <dc:format>image/svg+xml</dc:format>
                                <dc:type rdf:resource="http://purl.org/dc/dcmitype/StillImage" />
                            </cc:Work>
                        </rdf:RDF>
                    </metadata>
                    <defs id="defs6">
                        <clipPath id="clipPath200" clipPathUnits="userSpaceOnUse">
                            <path id="path200" d="m 0,0 3819,0 0,2056.64 -3819,0 L 0,0 Z" />
                        </clipPath>
                    </defs>
                    <g transform="matrix(1.25,0,0,-1.25,0,257.075)" id="g10">
                        <g transform="scale(0.1,0.1)" id="g12">
                            <g id="g14">
                                <g clip-path="url(#clipPath200)" id="g16">
                                    <path id="path202" style="fill:#e51636;fill-opacity:1;fill-rule:nonzero;stroke:none"
                                        d="m 1341.95,1122.7 0,0 c -0.51,-34.75 -13.77,-95.63 10.1,-207.188 0,0 72.66,-537.614 620.03,-548.223 157.49,10.781 223.91,40.75 304.93,80.43 304.1,148.793 354.72,482.269 354.72,482.269 l -286.09,0 C 2180.12,556.441 1858.58,681.77 1858.58,681.77 l 180.88,849.99 c 347.58,-9.49 360.57,-336.94 360.57,-336.94 l 290.82,0 c 0,0 20.44,343.98 -314.87,548.05 -68.67,41.8 -181.91,71.2 -292.76,73.79 0,0 -619.12,38.84 -741.27,-693.96" />
                                    <path id="path204" style="fill:#e51636;fill-opacity:1;fill-rule:nonzero;stroke:none"
                                        d="m 3819.41,1724.41 -56.76,-264.84 -487.06,0 -56.76,-264.8 488.25,0 -55.54,-264.821 -488.27,0 -55.57,-264.808 488.27,0 -56.75,-263.61 -983.59,0 280.17,1322.879 983.61,0" />
                                    <path id="path206" style="fill:#e51636;fill-opacity:1;fill-rule:nonzero;stroke:none"
                                        d="M 725.051,399.191 566.637,1243.29 3.91016,399.191 l 721.14084,0" />
                                    <path id="path208" style="fill:#e51636;fill-opacity:1;fill-rule:nonzero;stroke:none"
                                        d="m 1414.28,399.191 -537.893,0 -189.157,1026.169 420.84,631.28 306.21,-1657.449" />
                                    <path id="path230" style="fill:#e51636;fill-opacity:1;fill-rule:nonzero;stroke:none"
                                        d="m 3658.97,472.52 c 10.11,0 19.11,0.71 19.11,12.851 0,9.711 -8.85,11.527 -17.16,11.527 l -16.23,0 0,-24.378 14.28,0 z m -14.28,-44.2 -11.92,0 0,78.66 29.96,0 c 18.6,0 27.8,-6.851 27.8,-22.398 0,-14.043 -8.86,-20.184 -20.38,-21.613 l 22.35,-34.649 -13.34,0 -20.72,34.102 -13.75,0 0,-34.102 z m 14.45,-17.5 c 30.83,0 55.21,24.18 55.21,57.012 0,32.297 -24.38,56.648 -55.21,56.648 -31.22,0 -55.57,-24.351 -55.57,-56.648 0,-32.832 24.35,-57.012 55.57,-57.012 z m -69.3,57.012 c 0,39.148 31.77,68.02 69.3,68.02 37.16,0 68.91,-28.872 68.91,-68.02 0,-39.512 -31.75,-68.383 -68.91,-68.383 -37.53,0 -69.3,28.871 -69.3,68.383" />
                                    <path id="path232" style="fill:#231f20;fill-opacity:1;fill-rule:nonzero;stroke:none"
                                        d="m 242.09,310.77 0,-40.129 -93.504,0 0,-205.3597 -55.0782,0 0,205.3597 -93.5078,0 0,40.129 242.09,0" />
                                    <path id="path234" style="fill:#231f20;fill-opacity:1;fill-rule:nonzero;stroke:none"
                                        d="m 265.598,310.77 51.675,0 0,-103.032 0.688,0 c 15.301,24.141 38.758,34.692 70.035,34.692 30.609,0 78.203,-16.66 78.203,-72.09 l 0,-105.0587 -51.679,0 0,90.4377 c 0,42.16 -19.383,52.019 -44.2,52.019 -26.863,0 -53.047,-18.699 -53.047,-60.179 l 0,-82.2777 -51.675,0 0,245.4887" />
                                    <path id="path236" style="fill:#231f20;fill-opacity:1;fill-rule:nonzero;stroke:none"
                                        d="m 671.223,169.648 c -3.071,30.954 -26.184,42.172 -54.407,42.172 -25.5,0 -50.996,-12.922 -54.062,-42.172 l 108.469,0 z M 562.754,139.059 c 0,-35.7 29.582,-49.6371 58.816,-49.6371 15.305,0 38.086,5.4375 43.528,21.7581 l 55.078,0 c -5.098,-42.5003 -64.942,-52.3714 -99.961,-52.3714 -86.699,0 -111.184,44.8904 -111.184,91.8124 0,46.918 24.485,91.809 111.184,91.809 49.305,0 104.726,-21.77 104.726,-92.84 l 0,-10.531 -162.187,0" />
                                    <path id="path238" style="fill:#e51636;fill-opacity:1;fill-rule:nonzero;stroke:none"
                                        d="m 892.891,310.77 51.679,0 0,-103.032 0.684,0 c 15.305,24.141 38.762,34.692 70.036,34.692 30.61,0 78.21,-16.66 78.21,-72.09 l 0,-105.0587 -51.68,0 0,90.4377 c 0,42.16 -19.39,52.019 -44.203,52.019 -26.863,0 -53.047,-18.699 -53.047,-60.179 l 0,-82.2777 -51.679,0 0,245.4887" />
                                    <path id="path240" style="fill:#e51636;fill-opacity:1;fill-rule:nonzero;stroke:none"
                                        d="m 1298.52,169.648 c -3.07,30.954 -26.19,42.172 -54.41,42.172 -25.5,0 -50.99,-12.922 -54.06,-42.172 l 108.47,0 z m -108.47,-30.589 c 0,-35.7 29.58,-49.6371 58.83,-49.6371 15.29,0 38.07,5.4375 43.51,21.7581 l 55.08,0 c -5.1,-42.5003 -64.94,-52.3714 -99.96,-52.3714 -86.7,0 -111.18,44.8904 -111.18,91.8124 0,46.918 24.48,91.809 111.18,91.809 49.31,0 104.73,-21.77 104.73,-92.84 l 0,-10.531 -162.19,0" />
                                    <path id="path242" style="fill:#e51636;fill-opacity:1;fill-rule:nonzero;stroke:none"
                                        d="m 1394.05,65.2813 51.6797,0 0,245.488 -51.6797,0 0,-245.488 z" />
                                    <path id="path244" style="fill:#e51636;fill-opacity:1;fill-rule:nonzero;stroke:none"
                                        d="m 1598.73,91.4609 c 32.65,0 54.4,26.8591 54.4,59.1601 0,32.289 -21.75,59.16 -54.4,59.16 -32.64,0 -54.39,-26.871 -54.39,-59.16 0,-32.301 21.75,-59.1601 54.39,-59.1601 z M 1492.66,195.84 c 0,13.941 -0.69,30.601 -1.37,40.121 l 49.64,0 c 0.68,-7.82 1.36,-15.641 1.36,-23.461 l 0.68,0 c 14.62,22.09 42.5,29.93 69.71,29.93 63.24,0 94.18,-42.168 94.18,-90.45 0,-76.5112 -58.82,-93.1714 -92.14,-93.1714 -25.51,0 -52.71,6.8125 -69.71,29.9219 l -0.67,0 0,-88.7305 -51.68,0 0,195.84" />
                                    <path id="path246" style="fill:#e51636;fill-opacity:1;fill-rule:nonzero;stroke:none"
                                        d="m 1773.5,203.32 -44.21,0 0,32.641 44.21,0 0,14.621 c 0,45.559 24.13,62.219 73.09,62.219 14.28,0 31.96,-0.692 44.2,-2.031 l 0,-31.981 c -6.45,0.352 -15.3,1.371 -23.46,1.371 -34.34,0 -42.15,-11.219 -42.15,-39.101 l 0,-5.098 53.03,0 0,-32.641 -53.03,0 0,-138.0387 -51.68,0 0,138.0387" />
                                    <path id="path248" style="fill:#e51636;fill-opacity:1;fill-rule:nonzero;stroke:none"
                                        d="m 2122.67,105.742 c 0,-14.9607 1.35,-29.5818 1.35,-40.4607 l -49.63,0 c -0.68,9.5195 -1.37,18.6992 -1.37,28.2187 l -0.68,0 c -17.34,-24.1406 -40.8,-34.6914 -72.07,-34.6914 -30.61,0 -78.21,16.6602 -78.21,72.0894 l 0,105.063 51.69,0 0,-90.449 c 0,-42.153 19.37,-52.012 44.19,-52.012 26.86,0 53.05,18.691 53.05,60.18 l 0,82.281 51.68,0 0,-130.219" />
                                    <path id="path250" style="fill:#e51636;fill-opacity:1;fill-rule:nonzero;stroke:none"
                                        d="m 2171.97,65.2813 51.6797,0 0,245.488 -51.6797,0 0,-245.488 z" />
                                    <path id="path252" style="fill:#231f20;fill-opacity:1;fill-rule:nonzero;stroke:none"
                                        d="m 2501.75,91.4609 c 32.66,0 54.42,26.8591 54.42,59.1601 0,32.289 -21.76,59.16 -54.42,59.16 -32.63,0 -54.39,-26.871 -54.39,-59.16 0,-32.301 21.76,-59.1601 54.39,-59.1601 z M 2395.68,195.84 c 0,13.941 -0.68,30.601 -1.37,40.121 l 49.65,0 c 0.68,-7.82 1.37,-15.641 1.37,-23.461 l 0.66,0 c 14.63,22.09 42.5,29.93 69.71,29.93 63.24,0 94.18,-42.168 94.18,-90.45 0,-76.5112 -58.81,-93.1714 -92.13,-93.1714 -25.51,0 -52.72,6.8125 -69.71,29.9219 l -0.68,0 0,-88.7305 -51.68,0 0,195.84" />
                                    <path id="path254" style="fill:#231f20;fill-opacity:1;fill-rule:nonzero;stroke:none"
                                        d="m 2648.3,65.2813 51.6797,0 0,245.488 -51.6797,0 0,-245.488 z" />
                                    <path id="path256" style="fill:#231f20;fill-opacity:1;fill-rule:nonzero;stroke:none"
                                        d="m 2853.32,143.141 c -39.11,0 -61.22,-8.161 -61.22,-28.571 0,-11.558 9.54,-27.1911 39.11,-27.1911 25.5,0 63.92,14.9611 64.61,55.7621 l -42.5,0 z m 94.18,-45.559 c 0,-11.2304 0.33,-20.7422 1.34,-32.3007 l -47.59,0 c -1.02,7.8203 -1.35,15.6406 -1.35,23.4492 -21.43,-21.4102 -47.95,-29.9219 -80.92,-29.9219 -59.84,0 -80.59,27.8906 -80.59,52.3714 0,53.379 51,62.55 116.27,62.55 l 41.16,0 c 0,30.27 -21.43,38.09 -47.27,38.09 -25.16,0 -39.43,-10.55 -41.48,-23.808 l -53.72,0 c 5.1,43.867 52.37,54.418 96.57,54.418 47.93,0 97.58,-13.621 97.58,-73.45 l 0,-71.398" />
                                    <path id="path258" style="fill:#231f20;fill-opacity:1;fill-rule:nonzero;stroke:none"
                                        d="m 3134.49,176.121 c -1.7,22.777 -18.01,35.699 -41.14,35.699 -27.2,0 -49.98,-19.371 -49.98,-61.871 0,-32.988 12.91,-60.5271 49.3,-60.5271 24.14,0 40.47,11.2191 43.18,35.3591 l 53.72,0 c -0.67,-44.8826 -45.9,-65.9724 -96.57,-65.9724 -64.94,0 -103.36,32.9922 -103.36,91.8124 0,59.828 41.16,91.809 101.66,91.809 67.68,0 94.53,-29.59 96.92,-66.309 l -53.73,0" />
                                    <path id="path260" style="fill:#231f20;fill-opacity:1;fill-rule:nonzero;stroke:none"
                                        d="m 3381.34,169.648 c -3.06,30.954 -26.19,42.172 -54.41,42.172 -25.49,0 -51,-12.922 -54.06,-42.172 l 108.47,0 z m -108.47,-30.589 c 0,-35.7 29.59,-49.6371 58.82,-49.6371 15.3,0 38.09,5.4375 43.52,21.7581 l 55.08,0 c -5.1,-42.5003 -64.94,-52.3714 -99.96,-52.3714 -86.7,0 -111.17,44.8904 -111.17,91.8124 0,46.918 24.47,91.809 111.17,91.809 49.31,0 104.72,-21.77 104.72,-92.84 l 0,-10.531 -162.18,0" />
                                    <path id="path262" style="fill:#231f20;fill-opacity:1;fill-rule:nonzero;stroke:none"
                                        d="m 3491.5,65.2813 47.6016,0 0,47.5977 -47.6016,0 0,-47.5977 z" />
                                </g>
                            </g>
                        </g>
                    </g>
                </svg>