<svg xmlns="http://www.w3.org/2000/svg" viewBox="0 0 1920 382.15"><defs><style>.cls-1{fill:#414042;}.cls-2{fill:#ffc200;}.cls-3{fill:#399933;}.cls-4{fill:#ff8b00;}</style></defs><g id="Layer_2" data-name="Layer 2"><g id="Layer_1-2" data-name="Layer 1"><path class="cls-1" d="M570.92,164.14c-45.74,0-74.43-32.34-74.43-81S526.31,1.61,570.7,1.61C588.9,1.61,603,5.93,614.63,13L610.3,41.44c-10.24-7.74-23-13.89-38.24-13.89-27.76,0-44.83,21.17-44.83,55.32,0,34.59,18.2,55.08,46,55.08,14.57,0,27.77-5.23,39.83-13.21l4.1,26a86.16,86.16,0,0,1-46.21,13.45"></path><path class="cls-1" d="M730.61,36.43,752,97H709.21ZM715.81,3.66,656.86,161.4h29.82L701,121.56h59.41l15,41.43,30-5.45L747.9,3.66Z"></path><polygon class="cls-1" points="999.56 161.4 991.14 46.67 951.54 161.86 925.13 161.86 885.3 46.67 877.34 161.4 850.25 161.4 862.31 4.33 900.55 4.33 940.38 122.92 979.99 4.33 1017.54 4.33 1029.61 161.4 999.56 161.4"></polygon><path class="cls-1" d="M1150.4,36.43,1171.79,97H1129ZM1135.6,3.66,1076.65,161.4h29.82l14.34-39.84h59.41l15,41.43,30-5.45L1167.7,3.66Z"></path><path class="cls-1" d="M1322.53,28.47h-16.61V78.32h15.25c18.66,0,30.27-8.89,30.27-25.28,0-15.7-10-24.57-28.91-24.57m69,128.82-30.72,5.7-41-61.69h-13.66v60.1h-30V4.34h48.71c35,0,56.22,16.61,56.22,47.11,0,22.77-12.07,37.1-31.41,44.16Z"></path><polygon class="cls-1" points="1447.39 161.4 1447.39 4.33 1538.66 4.33 1538.66 29.83 1477.21 29.83 1477.21 66.71 1524.55 66.71 1528.64 92.65 1477.21 92.65 1477.21 135.89 1540.94 135.89 1540.94 161.4 1447.39 161.4"></polygon><polygon class="cls-1" points="1701.52 161.4 1627.58 53.28 1627.58 161.4 1599.61 161.4 1599.61 4.33 1628.04 4.33 1698.56 107.22 1698.56 4.33 1726.56 4.33 1726.56 161.4 1701.52 161.4"></polygon><path class="cls-1" d="M1845.11,36.43,1866.51,97h-42.8Zm-14.8-32.77L1771.37,161.4h29.81l14.34-39.84h59.41L1890,163l30-5.45L1862.41,3.66Z"></path><polygon class="cls-1" points="619.48 223.5 619.48 291.35 532.3 291.35 532.3 223.5 516.59 223.5 516.59 380.55 532.3 380.55 532.3 305.46 619.48 305.46 619.48 380.55 635.17 380.55 635.17 223.5 619.48 223.5"></polygon><polygon class="cls-1" points="722.57 223.5 722.57 380.55 806.78 380.55 806.78 366.45 738.27 366.45 738.27 305.46 792.91 305.46 790.63 291.35 738.27 291.35 738.27 237.62 804.51 237.62 804.51 223.5 722.57 223.5"></polygon><path class="cls-1" d="M929.89,241,959,315.93H901.21Zm-10.53-18.45-59.12,158h15.93l19.35-50.75h68.73l20.26,52.35,15.25-3.4L935.52,222.59Z"></path><polygon class="cls-1" points="1063.65 223.5 1063.65 380.55 1142.18 380.55 1139.91 366.45 1079.36 366.45 1079.36 223.5 1063.65 223.5"></polygon><polygon class="cls-1" points="1177.71 223.5 1177.71 237.62 1228.69 237.62 1228.69 380.55 1244.17 380.55 1244.17 237.62 1295.6 237.62 1293.33 223.5 1177.71 223.5"></polygon><polygon class="cls-1" points="1471.32 223.5 1471.32 291.35 1384.14 291.35 1384.14 223.5 1368.44 223.5 1368.44 380.55 1384.14 380.55 1384.14 305.46 1471.32 305.46 1471.32 380.55 1487.03 380.55 1487.03 223.5 1471.32 223.5"></polygon><path class="cls-2" d="M302.27,151.29q-9-.58-18.17-.57a280.1,280.1,0,0,0-80.47,11.73,280.58,280.58,0,0,0-64.58-7.5q-9.68,0-19.2.68a93.75,93.75,0,0,1,182.42-4.34Z"></path><path class="cls-3" d="M328,264.12,211.57,380.54,34.16,203.11a256,256,0,0,1,293.83,61Z"></path><path class="cls-3" d="M391.9,200.21,346.11,246a282.3,282.3,0,0,0-94.44-67.51A256.32,256.32,0,0,1,391.9,200.21Z"></path><path class="cls-4" d="M407.21,179.11a277.89,277.89,0,0,0-77.95-24.77,119.48,119.48,0,0,0-236,4.37,278.31,278.31,0,0,0-75.33,23.71A119.48,119.48,0,0,1,204,35c2.71,2.69,5.24,5.48,7.62,8.35,2.41-2.89,4.94-5.66,7.63-8.35a119.47,119.47,0,0,1,188,144.1Z"></path></g></g></svg>