<?xml version="1.0" standalone="no"?>
<!DOCTYPE svg PUBLIC "-//W3C//DTD SVG 20010904//EN"
 "http://www.w3.org/TR/2001/REC-SVG-20010904/DTD/svg10.dtd">
<svg version="1.0" xmlns="http://www.w3.org/2000/svg"
 width="449.000000pt" height="449.000000pt" viewBox="0 0 449.000000 449.000000"
 preserveAspectRatio="xMidYMid meet">
<metadata>
Created by potrace 1.14, written by Peter Selinger 2001-2017
</metadata>
<g transform="translate(0.000000,449.000000) scale(0.100000,-0.100000)"
fill="#000000" stroke="none">
<path d="M1710 3344 c-51 -22 -137 -110 -170 -174 -29 -56 -52 -80 -150 -160
-98 -80 -122 -115 -169 -248 -19 -51 -37 -95 -42 -98 -14 -9 -90 68 -160 162
-110 149 -124 145 -286 -89 -21 -31 -42 -48 -60 -52 -75 -15 -61 4 -305 -455
-156 -293 -223 -405 -309 -519 -31 -42 -55 -78 -53 -80 8 -9 120 78 164 127
26 29 114 164 195 300 172 287 214 352 226 352 5 0 9 -16 9 -36 0 -39 -72
-179 -166 -321 -30 -44 -54 -84 -54 -87 0 -3 10 -6 23 -6 15 0 46 25 94 76 73
78 78 79 85 24 l3 -24 19 29 c11 17 26 53 33 80 7 28 24 84 37 125 13 41 34
107 46 145 42 139 130 227 212 211 36 -6 160 -104 166 -130 4 -16 -76 -172
-148 -290 -83 -137 -157 -198 -435 -361 -83 -48 -144 -99 -133 -110 9 -9 326
133 387 173 182 120 368 399 521 785 65 163 100 217 140 217 22 0 22 -3 16
-55 -9 -82 -38 -147 -104 -238 -73 -101 -95 -144 -116 -228 -30 -121 -15 -172
19 -66 25 76 65 141 146 237 83 99 123 176 180 349 23 69 49 134 59 144 16 17
18 15 42 -55 24 -71 26 -74 77 -98 49 -24 51 -26 37 -45 -25 -32 -20 -64 10
-71 29 -7 212 2 238 12 27 10 18 28 -26 52 -26 13 -52 38 -65 61 -18 31 -33
42 -82 60 -33 12 -63 26 -66 31 -10 16 -18 130 -9 130 20 0 53 -32 88 -83 32
-50 39 -55 80 -59 33 -4 65 -20 123 -60 43 -31 121 -77 173 -103 52 -26 111
-60 130 -75 77 -60 421 -209 518 -224 100 -15 6 63 -194 161 -113 56 -392 220
-514 303 -39 26 -80 69 -126 131 -93 126 -238 240 -301 239 -10 -1 -34 -8 -53
-16z"/>
<path d="M3712 3074 c-8 -14 -15 -15 -38 -7 -31 11 -74 1 -74 -16 0 -6 -12 -8
-27 -5 -34 7 -83 -11 -83 -29 0 -10 -13 -13 -42 -13 -36 1 -45 -3 -53 -22 -9
-20 -15 -22 -48 -16 -42 7 -67 -7 -67 -37 0 -12 10 -21 28 -25 60 -13 90 -26
107 -45 18 -19 18 -20 -1 -33 -17 -13 -22 -12 -44 9 -69 65 -182 96 -195 55
-7 -23 10 -50 32 -50 19 0 87 -35 102 -54 11 -13 9 -17 -14 -28 -25 -11 -29
-10 -47 14 -31 44 -175 87 -192 59 -11 -17 5 -36 55 -66 73 -43 77 -51 37 -75
-18 -11 -38 -20 -44 -20 -6 0 -31 27 -55 60 -36 50 -49 60 -69 58 -38 -5 -37
-43 5 -112 19 -32 35 -67 35 -77 0 -23 8 -27 105 -61 44 -16 91 -36 105 -46
38 -28 56 -32 75 -18 30 21 9 50 -68 94 -40 23 -78 42 -85 42 -19 0 -14 18 9
31 46 24 181 -23 240 -84 33 -34 43 -40 57 -31 27 17 25 36 -8 81 -20 27 -49
50 -80 64 -82 37 -59 52 36 24 27 -8 73 -30 102 -50 58 -38 89 -44 99 -19 9
23 -32 59 -114 100 -91 45 -85 60 17 39 79 -17 88 -21 137 -72 18 -18 36 -33
42 -33 13 0 41 29 41 42 0 22 -80 87 -132 107 -47 18 -49 20 -23 20 34 1 163
-57 184 -82 15 -19 66 -23 76 -7 17 27 -10 54 -99 96 -96 46 -89 60 11 22 34
-12 71 -35 89 -55 23 -24 39 -34 55 -31 33 4 34 28 5 71 -33 49 -18 47 27 -3
19 -22 40 -40 45 -40 16 0 34 29 26 42 -4 7 2 5 13 -4 22 -20 49 -23 59 -7 3
6 17 8 29 5 14 -4 29 0 39 9 8 8 21 15 30 15 8 0 19 7 24 16 8 14 10 12 16
-10 6 -23 12 -26 46 -26 21 0 42 -4 45 -10 3 -5 15 -10 26 -10 13 0 19 7 19
24 0 33 -35 73 -88 100 -26 13 -65 38 -86 55 -22 17 -51 34 -65 37 -14 3 -36
10 -49 15 -12 5 -54 16 -93 24 -62 13 -75 13 -106 0 -30 -13 -38 -13 -63 0
-38 20 -67 19 -78 -1z m-88 -111 c26 -13 27 -16 13 -30 -14 -14 -19 -12 -56
17 -23 19 -41 35 -41 37 0 6 54 -9 84 -24z m101 17 c3 -5 1 -10 -4 -10 -6 0
-11 5 -11 10 0 6 2 10 4 10 3 0 8 -4 11 -10z m-242 -49 c52 -23 62 -34 43 -51
-12 -9 -23 -3 -57 29 -23 23 -39 41 -36 41 3 0 25 -9 50 -19z"/>
<path d="M1397 2436 c-81 -22 -123 -78 -114 -153 6 -58 40 -93 138 -144 92
-48 128 -82 113 -107 -15 -23 -88 -28 -120 -7 -13 8 -35 33 -49 55 -18 28 -32
40 -49 40 -38 0 -47 -20 -37 -81 20 -117 6 -106 145 -114 102 -6 128 -4 161 9
117 49 148 171 65 251 -17 17 -72 53 -122 80 -50 28 -93 55 -95 62 -8 22 34
35 77 23 30 -8 47 -21 66 -50 21 -31 33 -40 55 -40 15 0 30 4 33 9 7 11 -5
136 -14 151 -4 7 -30 14 -57 15 -27 1 -72 5 -99 8 -28 4 -69 1 -97 -7z"/>
<path d="M2752 2443 c-86 -4 -94 -5 -103 -27 -15 -32 3 -64 38 -68 l28 -3 0
-165 0 -165 -25 -3 c-45 -6 -63 -47 -34 -76 12 -13 40 -16 143 -16 144 0 165
7 159 55 -2 24 -9 31 -33 35 -28 5 -30 8 -33 59 -4 70 9 65 76 -31 68 -99 111
-122 209 -114 81 6 62 6 207 -1 149 -6 184 0 192 33 8 30 -11 54 -41 54 -27 0
-35 17 -35 71 0 25 5 39 13 39 6 0 36 -37 65 -81 75 -113 88 -118 304 -119
196 0 221 6 216 52 -3 30 -6 33 -40 36 -21 2 -38 5 -38 6 0 2 7 20 15 40 l15
36 74 0 c74 0 74 0 85 -31 16 -45 15 -47 -21 -51 -28 -3 -33 -7 -36 -33 -6
-47 16 -55 154 -55 150 0 176 8 172 51 -2 26 -9 34 -38 43 -33 11 -38 19 -121
211 -63 146 -93 204 -111 213 -45 25 -171 1 -152 -29 6 -10 -154 -381 -169
-391 -19 -12 -71 -9 -89 5 -17 13 -88 117 -88 129 0 5 6 8 13 8 7 0 28 15 46
34 67 69 48 173 -39 217 -58 30 -162 41 -315 33 -77 -3 -146 -11 -152 -16 -7
-6 -13 -21 -13 -33 0 -27 16 -42 50 -47 l25 -3 0 -159 c0 -131 -3 -160 -15
-166 -8 -4 -25 -12 -37 -19 -18 -8 -28 -8 -45 0 -13 7 -30 15 -38 19 -24 11
-96 133 -82 138 29 9 71 55 82 88 22 66 -6 131 -71 165 -44 22 -151 39 -224
37 -27 -1 -92 -4 -143 -5z m217 -94 c86 -30 56 -139 -39 -139 l-40 0 0 68 c0
38 3 72 7 75 9 10 36 8 72 -4z m610 0 c88 -31 57 -139 -40 -139 l-39 0 0 68
c0 38 3 72 7 75 9 10 36 8 72 -4z m555 -115 c11 -29 6 -44 -14 -44 -22 0 -23
3 -14 38 7 26 19 29 28 6z"/>
<path d="M1744 2426 c-3 -8 -4 -25 -2 -37 3 -20 12 -28 58 -49 12 -6 16 -35
18 -155 3 -157 -2 -175 -43 -175 -38 0 -50 -62 -16 -80 11 -5 76 -10 145 -10
100 0 128 3 140 16 28 28 16 74 -19 74 -41 0 -46 18 -43 181 l3 154 25 3 c34
5 50 20 50 46 0 42 -16 46 -167 46 -115 0 -145 -3 -149 -14z"/>
<path d="M2087 2433 c-4 -3 -7 -21 -7 -39 0 -29 4 -34 33 -42 l32 -8 0 -165 0
-164 -30 -5 c-24 -4 -31 -11 -33 -35 -6 -52 8 -55 262 -55 128 0 238 5 246 10
11 7 15 29 15 87 0 78 0 78 -27 81 l-28 3 0 88 c0 82 2 89 21 94 21 6 22 10
16 72 -4 36 -9 70 -12 75 -7 11 -478 14 -488 3z m412 -115 c7 -18 4 -25 -11
-31 -11 -4 -22 -16 -25 -27 -6 -24 -34 -32 -94 -28 l-44 3 -3 53 -3 52 86 0
c80 0 86 -2 94 -22z m-64 -184 c12 -3 25 -15 30 -27 6 -12 22 -24 38 -27 26
-5 27 -6 12 -27 -15 -21 -24 -23 -106 -23 l-89 0 0 48 c0 27 3 52 7 55 8 8 80
9 108 1z"/>
<path d="M1684 1895 c-8 -20 11 -42 56 -65 20 -10 43 -26 50 -35 12 -15 11
-19 -10 -36 -14 -10 -29 -18 -35 -18 -5 0 -28 22 -49 49 -40 51 -69 63 -94 38
-23 -23 -13 -60 28 -104 43 -47 48 -65 24 -84 -13 -11 -19 -9 -40 12 -14 13
-31 42 -39 64 -15 44 -34 60 -60 50 -15 -5 -17 -14 -11 -53 3 -25 17 -66 31
-89 25 -43 25 -43 5 -54 -11 -6 -25 -8 -30 -5 -12 7 -30 71 -30 106 0 55 -56
61 -67 8 -6 -33 -11 -35 -27 -13 -17 22 -44 8 -67 -37 -13 -26 -26 -39 -40
-39 -11 0 -22 -7 -25 -15 -4 -8 -17 -15 -30 -15 -12 0 -29 -8 -36 -19 -7 -10
-28 -22 -47 -26 -86 -19 -143 -85 -123 -143 7 -21 6 -35 -4 -53 -7 -13 -13
-34 -14 -46 0 -28 65 -96 114 -119 36 -16 40 -16 50 -2 9 14 12 15 33 1 17
-12 26 -13 37 -4 7 6 24 10 37 9 20 -3 25 2 27 25 2 15 -1 27 -7 27 -13 0 -51
73 -51 98 0 35 12 31 34 -10 26 -52 106 -121 129 -112 27 10 20 37 -19 75 -43
41 -68 85 -59 107 5 12 10 9 26 -17 12 -19 38 -41 68 -55 27 -12 56 -30 66
-40 25 -24 49 -16 53 17 4 32 -13 57 -37 57 -22 0 -81 61 -81 82 0 31 21 30
53 0 18 -17 46 -34 62 -38 17 -4 42 -16 57 -27 30 -23 58 -17 58 12 0 24 -14
39 -79 80 -54 35 -63 54 -32 71 16 8 28 5 56 -15 21 -13 53 -27 74 -31 20 -3
46 -12 58 -20 29 -18 62 -18 69 0 9 23 -14 55 -44 62 -32 8 -102 45 -102 54 0
4 9 15 20 25 20 18 22 18 68 -4 74 -34 162 -54 178 -40 34 28 8 55 -93 95 -40
16 -73 32 -73 36 0 4 11 15 25 24 25 16 30 16 118 -11 51 -15 96 -32 102 -36
15 -14 55 -10 61 5 3 8 1 22 -4 31 -10 18 -126 74 -153 75 -10 0 -19 11 -22
28 -8 41 -41 77 -92 101 -53 25 -93 27 -101 6z m-260 -360 c15 -23 16 -29 5
-36 -20 -12 -35 12 -43 67 -7 55 6 85 15 32 3 -20 14 -48 23 -63z m-94 -89
c-16 -16 -30 12 -29 59 l0 40 20 -44 c14 -32 17 -47 9 -55z m-87 6 c4 -32 2
-50 -3 -47 -6 4 -10 29 -10 57 0 64 5 60 13 -10z m-64 -65 c1 -10 -3 -15 -9
-12 -5 3 -10 21 -9 38 0 27 2 29 9 12 5 -11 9 -28 9 -38z"/>
<path d="M2565 1883 c-63 -17 -105 -76 -105 -146 0 -77 62 -129 151 -129 145
0 215 163 106 246 -35 27 -109 41 -152 29z m97 -67 c23 -27 24 -113 2 -144
-33 -48 -104 -15 -119 55 -19 94 63 156 117 89z"/>
<path d="M3444 1875 c-2 -5 -5 -26 -6 -45 -2 -26 1 -35 15 -38 12 -2 20 3 24
17 5 22 36 37 53 26 5 -3 10 -42 10 -85 0 -69 -3 -81 -21 -94 -13 -9 -19 -21
-16 -30 9 -23 135 -23 144 0 4 10 0 20 -10 26 -23 12 -25 188 -3 188 16 0 42
-23 48 -42 2 -6 12 -9 21 -5 18 7 24 62 9 82 -4 6 -61 10 -136 10 -77 0 -130
-4 -132 -10z"/>
<path d="M3816 1878 c-24 -82 -80 -213 -97 -227 -33 -26 -15 -41 47 -41 59 0
82 20 50 43 -27 20 -10 47 29 47 39 0 56 -27 29 -47 -9 -7 -14 -19 -11 -28 9
-23 395 -21 404 2 4 9 -1 19 -10 25 -13 7 -17 23 -17 71 l1 62 83 -88 c113
-119 120 -117 124 30 2 103 4 111 23 116 43 11 13 32 -49 35 -67 3 -80 -9 -42
-41 21 -17 28 -71 11 -81 -5 -4 -35 23 -66 58 l-57 65 -134 0 c-113 1 -134 -2
-134 -15 0 -8 7 -17 15 -20 12 -5 15 -25 15 -94 0 -49 -4 -91 -9 -94 -23 -15
-43 14 -83 117 l-44 112 -37 3 c-24 2 -38 -1 -41 -10z m372 -131 c-3 -84 -16
-107 -52 -94 -25 10 -24 174 2 193 14 10 20 10 35 -4 15 -13 17 -29 15 -95z
m-338 18 c0 -8 -4 -15 -10 -15 -5 0 -7 7 -4 15 4 8 8 15 10 15 2 0 4 -7 4 -15z"/>
<path d="M2100 1861 c0 -10 6 -21 13 -24 21 -8 6 -166 -18 -183 -30 -23 -11
-44 40 -44 50 0 73 24 42 42 -18 10 -24 82 -9 92 5 3 22 -26 39 -64 17 -39 37
-70 43 -70 6 0 26 31 43 70 18 38 35 70 40 70 4 0 7 -20 7 -44 0 -34 -5 -47
-22 -58 -35 -24 -13 -38 58 -38 49 0 66 4 71 15 3 9 -1 21 -10 28 -22 18 -33
170 -12 187 31 26 18 40 -39 40 l-53 0 -33 -72 -34 -73 -33 73 -32 72 -51 0
c-42 0 -50 -3 -50 -19z"/>
<path d="M2780 1860 c0 -11 7 -20 15 -20 12 0 15 -16 15 -82 0 -72 3 -87 24
-112 21 -27 31 -30 89 -34 65 -4 67 -4 102 31 34 34 35 38 35 109 0 59 4 78
18 91 14 13 20 13 35 3 25 -19 25 -180 0 -194 -10 -6 -14 -16 -10 -26 5 -12
20 -16 57 -16 37 0 52 4 57 16 4 10 0 20 -10 26 -13 7 -17 23 -17 66 l0 57 84
-84 c113 -112 120 -110 124 34 2 84 6 112 17 118 8 4 15 15 15 22 0 12 -14 15
-60 15 -47 0 -60 -3 -60 -15 0 -9 7 -18 15 -21 10 -4 15 -20 15 -52 l0 -46
-67 66 -68 67 -109 0 c-60 0 -113 -2 -117 -5 -12 -7 1 -34 17 -34 11 0 14 -17
14 -70 0 -57 -4 -74 -20 -90 -25 -25 -62 -26 -83 -2 -23 25 -24 157 -2 166 8
3 15 12 15 21 0 12 -14 15 -70 15 -63 0 -70 -2 -70 -20z"/>
<path d="M3465 1555 c-18 -19 -43 -55 -55 -80 -12 -25 -31 -50 -41 -56 -26
-14 -24 3 4 38 31 37 40 72 21 80 -9 3 -20 1 -27 -6 -14 -14 -77 -15 -77 -1 0
15 -26 12 -41 -6 -7 -8 -21 -13 -30 -11 -10 3 -26 -1 -36 -9 -17 -13 -17 -15
2 -30 20 -15 20 -16 -10 -40 -36 -29 -41 -30 -48 -4 -7 27 -39 25 -66 -4 -22
-23 -68 -42 -78 -32 -2 2 12 41 32 87 36 81 36 109 1 96 -33 -13 -76 -120 -80
-197 l-1 -35 44 2 c29 1 51 9 67 24 23 22 25 22 38 4 11 -16 17 -17 47 -6 19
6 35 8 37 4 12 -36 21 -38 61 -15 47 26 51 27 51 7 0 -26 30 -29 60 -6 32 23
55 27 66 10 4 -7 21 -9 46 -5 21 4 48 2 59 -4 24 -14 94 16 94 40 0 16 -7 16
-40 4 -14 -5 -12 -1 8 15 15 12 27 31 27 42 0 30 -46 24 -82 -11 -71 -72 -99
-56 -38 21 41 52 57 90 45 108 -11 18 -26 12 -60 -24z m-155 -95 c0 -11 -62
-52 -68 -45 -3 2 3 16 12 30 16 24 56 35 56 15z"/>
<path d="M3752 1568 c-11 -14 -30 -62 -58 -151 -16 -51 -17 -59 -4 -67 21 -13
45 -12 84 4 23 10 37 11 44 4 7 -7 20 -7 42 0 23 9 36 8 50 0 14 -9 24 -8 44
6 18 11 32 14 44 8 9 -5 26 -6 37 -1 30 12 35 11 35 -7 0 -9 -11 -25 -25 -36
-29 -23 -34 -65 -7 -70 42 -10 112 39 112 78 0 32 30 47 53 27 15 -14 21 -14
45 -3 30 15 90 13 110 -2 17 -15 102 18 102 39 0 12 -7 14 -32 9 l-33 -6 28
21 c15 11 27 29 27 40 0 31 -51 25 -84 -10 -24 -25 -31 -28 -47 -18 -15 9 -24
9 -39 -1 -19 -12 -20 -11 -14 13 8 33 -14 34 -53 2 -49 -40 -82 -57 -88 -47
-3 5 10 20 29 32 39 25 52 46 37 61 -11 11 -64 -15 -110 -56 -32 -27 -35 -28
-41 -11 -4 11 -2 27 4 36 26 43 -19 30 -129 -37 -48 -30 -71 -32 -32 -4 36 27
36 59 1 59 -17 0 -40 -15 -70 -45 -40 -41 -74 -58 -74 -36 0 5 14 39 30 76 17
37 30 75 30 86 0 22 -32 26 -48 7z"/>
<path d="M3118 1526 c-23 -17 -23 -46 0 -46 23 0 42 19 42 42 0 21 -18 23 -42
4z"/>
</g>
</svg>
