<?xml version="1.0" standalone="no"?>
<!DOCTYPE svg PUBLIC "-//W3C//DTD SVG 20010904//EN"
 "http://www.w3.org/TR/2001/REC-SVG-20010904/DTD/svg10.dtd">
<svg version="1.0" xmlns="http://www.w3.org/2000/svg"
 width="700.000000pt" height="700.000000pt" viewBox="0 0 700.000000 700.000000"
 preserveAspectRatio="xMidYMid meet">
<metadata>
Created by potrace 1.14, written by Peter Selinger 2001-2017
</metadata>
<g transform="translate(0.000000,700.000000) scale(0.100000,-0.100000)"
fill="#000000" stroke="none">
<path d="M3430 6987 c0 -6 9 -57 19 -112 38 -195 46 -292 46 -550 -1 -265 -6
-291 -77 -357 -51 -49 -86 -62 -160 -61 -48 1 -125 40 -151 78 -12 16 -24 32
-28 35 -13 10 -26 76 -23 125 4 80 4 345 -1 400 -13 144 -57 390 -74 408 -8 7
-107 -8 -244 -37 -339 -74 -720 -225 -1027 -409 -77 -46 -243 -155 -280 -184
-8 -6 -51 -40 -95 -74 -134 -104 -340 -299 -460 -434 -146 -165 -331 -427
-437 -620 -50 -91 -148 -290 -148 -300 0 -3 -11 -28 -24 -57 -75 -166 -156
-439 -200 -668 -29 -152 -28 -152 14 -162 19 -5 44 -11 55 -13 11 -3 60 -12
110 -21 50 -8 101 -18 115 -21 14 -3 150 -7 302 -8 273 -3 277 -3 318 -28 64
-38 103 -99 108 -167 7 -103 -39 -183 -128 -223 -41 -18 -67 -20 -270 -21
-248 -1 -335 5 -513 34 -87 15 -93 16 -135 29 -26 8 -34 7 -39 -5 -5 -14 3
-323 11 -379 2 -16 7 -57 11 -90 15 -138 26 -206 60 -365 21 -96 91 -339 114
-395 5 -11 25 -65 46 -120 63 -166 249 -531 312 -610 4 -6 34 -49 65 -95 130
-194 341 -434 543 -616 279 -251 651 -486 995 -627 240 -99 562 -190 785 -222
23 -3 50 -7 60 -9 25 -5 138 -18 185 -22 19 -2 113 -5 209 -8 l174 -6 -6 38
c-3 20 -8 48 -11 62 -38 171 -51 318 -50 580 0 239 7 280 56 336 120 136 337
82 376 -93 6 -24 8 -60 7 -80 -10 -106 -4 -378 10 -475 3 -21 8 -57 11 -80 10
-72 45 -233 53 -241 18 -19 390 66 600 137 214 73 426 167 595 265 49 28 90
51 92 51 10 0 274 184 354 247 151 118 325 281 450 422 36 41 70 79 76 85 29
30 185 242 240 326 231 354 392 731 490 1153 33 142 48 244 36 251 -16 9 -255
55 -322 61 -36 4 -83 8 -105 10 -42 5 -281 5 -375 1 -102 -5 -176 37 -221 127
-57 111 11 263 133 298 73 21 547 17 651 -6 12 -2 44 -7 71 -10 42 -5 75 -11
197 -37 11 -2 14 24 14 136 0 76 -3 173 -6 215 -12 130 -20 205 -24 221 -2 8
-7 35 -10 60 -17 129 -80 384 -136 552 -152 453 -407 888 -725 1237 -84 92
-258 260 -334 322 -36 30 -67 57 -70 60 -4 5 -164 121 -270 196 -100 71 -365
213 -518 279 -166 70 -203 85 -282 110 -30 9 -71 22 -90 29 -67 24 -309 83
-407 99 -196 33 -330 46 -530 52 -126 3 -163 1 -163 -9z m-272 -1552 c22 -15
53 -45 68 -68 25 -36 29 -52 29 -112 0 -79 -9 -102 -123 -305 -56 -100 -195
-313 -226 -346 -6 -7 -27 -31 -46 -55 -84 -105 -224 -249 -340 -349 -41 -36
-86 -75 -100 -87 -13 -13 -28 -23 -31 -23 -3 0 -17 -9 -30 -21 -39 -35 -237
-163 -334 -216 -173 -96 -203 -108 -280 -108 -60 0 -76 4 -111 28 -117 79
-136 225 -43 331 23 25 46 46 52 46 7 0 73 33 147 74 444 242 780 585 1010
1031 78 151 99 174 190 209 36 14 128 -2 168 -29z m2212 -2211 c88 -58 120
-175 76 -270 -30 -63 -52 -81 -177 -144 -464 -234 -826 -595 -1072 -1066 -62
-119 -79 -143 -119 -172 -146 -103 -347 11 -339 193 3 70 132 316 270 515 95
137 207 269 340 400 222 218 408 354 689 502 64 34 137 67 161 74 57 14 118 3
171 -32z"/>
</g>
</svg>
